<mxfile host="app.diagrams.net" agent="Mozilla/5.0 (Windows NT 10.0; Win64; x64) AppleWebKit/537.36 (KHTML, like Gecko) Chrome/135.0.0.0 Safari/537.36" version="26.2.14">
  <diagram name="Страница — 1" id="QJ9tVVPySss0B-gmdygz">
    <mxGraphModel dx="1042" dy="535" grid="1" gridSize="10" guides="1" tooltips="1" connect="1" arrows="1" fold="1" page="1" pageScale="1" pageWidth="850" pageHeight="1100" math="0" shadow="0">
      <root>
        <mxCell id="0" />
        <mxCell id="1" parent="0" />
        <mxCell id="BM99FK_3BUTFEGiYKY4v-1" value="Пользователь" style="whiteSpace=wrap;html=1;" parent="1" vertex="1">
          <mxGeometry x="320" y="250" width="120" height="30" as="geometry" />
        </mxCell>
        <mxCell id="BM99FK_3BUTFEGiYKY4v-3" value="Происшествие" style="whiteSpace=wrap;html=1;" parent="1" vertex="1">
          <mxGeometry x="670" y="250" width="120" height="30" as="geometry" />
        </mxCell>
        <mxCell id="BM99FK_3BUTFEGiYKY4v-4" value="Маршрут" style="whiteSpace=wrap;html=1;" parent="1" vertex="1">
          <mxGeometry x="330" y="420" width="100" height="30" as="geometry" />
        </mxCell>
        <mxCell id="BM99FK_3BUTFEGiYKY4v-5" value="Сообщает" style="rhombus;whiteSpace=wrap;html=1;" parent="1" vertex="1">
          <mxGeometry x="510" y="245" width="100" height="40" as="geometry" />
        </mxCell>
        <mxCell id="BM99FK_3BUTFEGiYKY4v-7" value="" style="endArrow=none;html=1;rounded=0;entryX=0;entryY=0.5;entryDx=0;entryDy=0;exitX=1;exitY=0.5;exitDx=0;exitDy=0;" parent="1" source="BM99FK_3BUTFEGiYKY4v-1" target="BM99FK_3BUTFEGiYKY4v-5" edge="1">
          <mxGeometry width="50" height="50" relative="1" as="geometry">
            <mxPoint x="350" y="350" as="sourcePoint" />
            <mxPoint x="400" y="300" as="targetPoint" />
          </mxGeometry>
        </mxCell>
        <mxCell id="BM99FK_3BUTFEGiYKY4v-9" value="Проходит" style="rhombus;whiteSpace=wrap;html=1;" parent="1" vertex="1">
          <mxGeometry x="330" y="330" width="100" height="40" as="geometry" />
        </mxCell>
        <mxCell id="BM99FK_3BUTFEGiYKY4v-10" value="" style="endArrow=none;html=1;rounded=0;entryX=0.5;entryY=1;entryDx=0;entryDy=0;exitX=0.5;exitY=0;exitDx=0;exitDy=0;" parent="1" source="BM99FK_3BUTFEGiYKY4v-9" target="BM99FK_3BUTFEGiYKY4v-1" edge="1">
          <mxGeometry width="50" height="50" relative="1" as="geometry">
            <mxPoint x="350" y="350" as="sourcePoint" />
            <mxPoint x="400" y="300" as="targetPoint" />
          </mxGeometry>
        </mxCell>
        <mxCell id="BM99FK_3BUTFEGiYKY4v-12" value="Фото" style="whiteSpace=wrap;html=1;" parent="1" vertex="1">
          <mxGeometry x="685" y="80" width="90" height="30" as="geometry" />
        </mxCell>
        <mxCell id="BM99FK_3BUTFEGiYKY4v-13" value="имеет" style="rhombus;whiteSpace=wrap;html=1;" parent="1" vertex="1">
          <mxGeometry x="680" y="170" width="100" height="40" as="geometry" />
        </mxCell>
        <mxCell id="BM99FK_3BUTFEGiYKY4v-14" value="" style="endArrow=none;html=1;rounded=0;entryX=0.5;entryY=1;entryDx=0;entryDy=0;exitX=0.5;exitY=0;exitDx=0;exitDy=0;" parent="1" source="BM99FK_3BUTFEGiYKY4v-3" target="BM99FK_3BUTFEGiYKY4v-13" edge="1">
          <mxGeometry width="50" height="50" relative="1" as="geometry">
            <mxPoint x="350" y="350" as="sourcePoint" />
            <mxPoint x="400" y="300" as="targetPoint" />
          </mxGeometry>
        </mxCell>
        <mxCell id="BM99FK_3BUTFEGiYKY4v-16" value="Тип" style="whiteSpace=wrap;html=1;" parent="1" vertex="1">
          <mxGeometry x="680" y="420" width="100" height="30" as="geometry" />
        </mxCell>
        <mxCell id="BM99FK_3BUTFEGiYKY4v-17" value="Имеет" style="rhombus;whiteSpace=wrap;html=1;" parent="1" vertex="1">
          <mxGeometry x="682.5" y="330" width="95" height="40" as="geometry" />
        </mxCell>
        <mxCell id="BM99FK_3BUTFEGiYKY4v-18" value="" style="endArrow=none;html=1;rounded=0;entryX=0.5;entryY=1;entryDx=0;entryDy=0;exitX=0.5;exitY=0;exitDx=0;exitDy=0;" parent="1" source="BM99FK_3BUTFEGiYKY4v-17" target="BM99FK_3BUTFEGiYKY4v-3" edge="1">
          <mxGeometry width="50" height="50" relative="1" as="geometry">
            <mxPoint x="350" y="350" as="sourcePoint" />
            <mxPoint x="400" y="300" as="targetPoint" />
          </mxGeometry>
        </mxCell>
        <mxCell id="BM99FK_3BUTFEGiYKY4v-20" value="Координата" style="whiteSpace=wrap;html=1;" parent="1" vertex="1">
          <mxGeometry x="500" y="490" width="90" height="30" as="geometry" />
        </mxCell>
        <mxCell id="BM99FK_3BUTFEGiYKY4v-21" value="Состоит" style="rhombus;whiteSpace=wrap;html=1;" parent="1" vertex="1">
          <mxGeometry x="345" y="490" width="70" height="30" as="geometry" />
        </mxCell>
        <mxCell id="BM99FK_3BUTFEGiYKY4v-24" value="" style="endArrow=none;html=1;rounded=0;entryX=0.5;entryY=0;entryDx=0;entryDy=0;exitX=0.5;exitY=1;exitDx=0;exitDy=0;" parent="1" source="BM99FK_3BUTFEGiYKY4v-4" target="BM99FK_3BUTFEGiYKY4v-21" edge="1">
          <mxGeometry width="50" height="50" relative="1" as="geometry">
            <mxPoint x="570" y="350" as="sourcePoint" />
            <mxPoint x="620" y="300" as="targetPoint" />
          </mxGeometry>
        </mxCell>
        <mxCell id="BM99FK_3BUTFEGiYKY4v-25" value="Широта" style="ellipse;whiteSpace=wrap;html=1;" parent="1" vertex="1">
          <mxGeometry x="820" y="190" width="70" height="30" as="geometry" />
        </mxCell>
        <mxCell id="BM99FK_3BUTFEGiYKY4v-26" value="Долгота" style="ellipse;whiteSpace=wrap;html=1;" parent="1" vertex="1">
          <mxGeometry x="820" y="300" width="70" height="30" as="geometry" />
        </mxCell>
        <mxCell id="BM99FK_3BUTFEGiYKY4v-27" value="Описание" style="ellipse;whiteSpace=wrap;html=1;" parent="1" vertex="1">
          <mxGeometry x="910" y="190" width="70" height="30" as="geometry" />
        </mxCell>
        <mxCell id="BM99FK_3BUTFEGiYKY4v-28" value="Статус" style="ellipse;whiteSpace=wrap;html=1;" parent="1" vertex="1">
          <mxGeometry x="910" y="300" width="70" height="30" as="geometry" />
        </mxCell>
        <mxCell id="BM99FK_3BUTFEGiYKY4v-29" value="" style="endArrow=none;html=1;rounded=0;exitX=0.5;exitY=0;exitDx=0;exitDy=0;edgeStyle=orthogonalEdgeStyle;entryX=1;entryY=0.5;entryDx=0;entryDy=0;" parent="1" source="BM99FK_3BUTFEGiYKY4v-28" target="BM99FK_3BUTFEGiYKY4v-3" edge="1">
          <mxGeometry width="50" height="50" relative="1" as="geometry">
            <mxPoint x="1065" y="268" as="sourcePoint" />
            <mxPoint x="850" y="310" as="targetPoint" />
          </mxGeometry>
        </mxCell>
        <mxCell id="BM99FK_3BUTFEGiYKY4v-32" value="" style="endArrow=none;html=1;rounded=0;entryX=0.5;entryY=1;entryDx=0;entryDy=0;exitX=1;exitY=0.5;exitDx=0;exitDy=0;edgeStyle=orthogonalEdgeStyle;" parent="1" source="BM99FK_3BUTFEGiYKY4v-3" target="BM99FK_3BUTFEGiYKY4v-25" edge="1">
          <mxGeometry relative="1" as="geometry">
            <mxPoint x="600" y="320" as="sourcePoint" />
            <mxPoint x="760" y="320" as="targetPoint" />
          </mxGeometry>
        </mxCell>
        <mxCell id="BM99FK_3BUTFEGiYKY4v-34" value="" style="endArrow=none;html=1;rounded=0;entryX=0.5;entryY=1;entryDx=0;entryDy=0;exitX=1;exitY=0.5;exitDx=0;exitDy=0;edgeStyle=orthogonalEdgeStyle;" parent="1" source="BM99FK_3BUTFEGiYKY4v-3" target="BM99FK_3BUTFEGiYKY4v-27" edge="1">
          <mxGeometry relative="1" as="geometry">
            <mxPoint x="600" y="320" as="sourcePoint" />
            <mxPoint x="760" y="320" as="targetPoint" />
          </mxGeometry>
        </mxCell>
        <mxCell id="BM99FK_3BUTFEGiYKY4v-35" value="Описание" style="ellipse;whiteSpace=wrap;html=1;" parent="1" vertex="1">
          <mxGeometry x="840" y="420" width="70" height="30" as="geometry" />
        </mxCell>
        <mxCell id="BM99FK_3BUTFEGiYKY4v-36" value="" style="endArrow=none;html=1;rounded=0;entryX=0;entryY=0.5;entryDx=0;entryDy=0;exitX=1;exitY=0.5;exitDx=0;exitDy=0;" parent="1" source="BM99FK_3BUTFEGiYKY4v-16" target="BM99FK_3BUTFEGiYKY4v-35" edge="1">
          <mxGeometry relative="1" as="geometry">
            <mxPoint x="600" y="320" as="sourcePoint" />
            <mxPoint x="760" y="320" as="targetPoint" />
          </mxGeometry>
        </mxCell>
        <mxCell id="BM99FK_3BUTFEGiYKY4v-37" value="" style="endArrow=none;html=1;rounded=0;entryX=0;entryY=0.5;entryDx=0;entryDy=0;exitX=0.5;exitY=1;exitDx=0;exitDy=0;edgeStyle=orthogonalEdgeStyle;" parent="1" source="BM99FK_3BUTFEGiYKY4v-20" target="BM99FK_3BUTFEGiYKY4v-38" edge="1">
          <mxGeometry relative="1" as="geometry">
            <mxPoint x="500" y="450" as="sourcePoint" />
            <mxPoint x="660" y="450" as="targetPoint" />
          </mxGeometry>
        </mxCell>
        <mxCell id="BM99FK_3BUTFEGiYKY4v-38" value="Широта" style="ellipse;whiteSpace=wrap;html=1;" parent="1" vertex="1">
          <mxGeometry x="570" y="550" width="70" height="30" as="geometry" />
        </mxCell>
        <mxCell id="BM99FK_3BUTFEGiYKY4v-39" value="Долгота" style="ellipse;whiteSpace=wrap;html=1;" parent="1" vertex="1">
          <mxGeometry x="450" y="550" width="70" height="30" as="geometry" />
        </mxCell>
        <mxCell id="BM99FK_3BUTFEGiYKY4v-40" value="" style="endArrow=none;html=1;rounded=0;entryX=1;entryY=0.5;entryDx=0;entryDy=0;exitX=0.5;exitY=1;exitDx=0;exitDy=0;edgeStyle=orthogonalEdgeStyle;" parent="1" source="BM99FK_3BUTFEGiYKY4v-20" target="BM99FK_3BUTFEGiYKY4v-39" edge="1">
          <mxGeometry relative="1" as="geometry">
            <mxPoint x="600" y="320" as="sourcePoint" />
            <mxPoint x="760" y="320" as="targetPoint" />
          </mxGeometry>
        </mxCell>
        <mxCell id="BM99FK_3BUTFEGiYKY4v-41" value="Статус" style="ellipse;whiteSpace=wrap;html=1;" parent="1" vertex="1">
          <mxGeometry x="210" y="460" width="70" height="30" as="geometry" />
        </mxCell>
        <mxCell id="BM99FK_3BUTFEGiYKY4v-42" value="Время конца" style="ellipse;whiteSpace=wrap;html=1;" parent="1" vertex="1">
          <mxGeometry x="210" y="420" width="70" height="30" as="geometry" />
        </mxCell>
        <mxCell id="BM99FK_3BUTFEGiYKY4v-43" value="Время начала" style="ellipse;whiteSpace=wrap;html=1;" parent="1" vertex="1">
          <mxGeometry x="210" y="380" width="70" height="30" as="geometry" />
        </mxCell>
        <mxCell id="BM99FK_3BUTFEGiYKY4v-44" value="" style="endArrow=none;html=1;rounded=0;exitX=1;exitY=0.5;exitDx=0;exitDy=0;entryX=0;entryY=0.5;entryDx=0;entryDy=0;edgeStyle=orthogonalEdgeStyle;" parent="1" source="BM99FK_3BUTFEGiYKY4v-43" target="BM99FK_3BUTFEGiYKY4v-4" edge="1">
          <mxGeometry relative="1" as="geometry">
            <mxPoint x="600" y="320" as="sourcePoint" />
            <mxPoint x="760" y="320" as="targetPoint" />
          </mxGeometry>
        </mxCell>
        <mxCell id="BM99FK_3BUTFEGiYKY4v-45" value="" style="endArrow=none;html=1;rounded=0;exitX=1;exitY=0.5;exitDx=0;exitDy=0;entryX=0;entryY=0.5;entryDx=0;entryDy=0;" parent="1" source="BM99FK_3BUTFEGiYKY4v-42" target="BM99FK_3BUTFEGiYKY4v-4" edge="1">
          <mxGeometry relative="1" as="geometry">
            <mxPoint x="600" y="320" as="sourcePoint" />
            <mxPoint x="760" y="320" as="targetPoint" />
          </mxGeometry>
        </mxCell>
        <mxCell id="BM99FK_3BUTFEGiYKY4v-46" value="" style="endArrow=none;html=1;rounded=0;exitX=1;exitY=0.5;exitDx=0;exitDy=0;entryX=0;entryY=0.5;entryDx=0;entryDy=0;edgeStyle=orthogonalEdgeStyle;" parent="1" source="BM99FK_3BUTFEGiYKY4v-41" target="BM99FK_3BUTFEGiYKY4v-4" edge="1">
          <mxGeometry relative="1" as="geometry">
            <mxPoint x="600" y="320" as="sourcePoint" />
            <mxPoint x="760" y="320" as="targetPoint" />
          </mxGeometry>
        </mxCell>
        <mxCell id="BM99FK_3BUTFEGiYKY4v-47" value="Имя" style="ellipse;whiteSpace=wrap;html=1;" parent="1" vertex="1">
          <mxGeometry x="217.5" y="185" width="90" height="40" as="geometry" />
        </mxCell>
        <mxCell id="BM99FK_3BUTFEGiYKY4v-48" value="Фамилия" style="ellipse;whiteSpace=wrap;html=1;" parent="1" vertex="1">
          <mxGeometry x="220" y="130" width="85" height="40" as="geometry" />
        </mxCell>
        <mxCell id="BM99FK_3BUTFEGiYKY4v-49" value="Электронная почта" style="ellipse;whiteSpace=wrap;html=1;" parent="1" vertex="1">
          <mxGeometry x="450" y="130" width="90" height="40" as="geometry" />
        </mxCell>
        <mxCell id="BM99FK_3BUTFEGiYKY4v-51" value="Номер телефона" style="ellipse;whiteSpace=wrap;html=1;" parent="1" vertex="1">
          <mxGeometry x="450" y="185" width="90" height="40" as="geometry" />
        </mxCell>
        <mxCell id="BM99FK_3BUTFEGiYKY4v-52" value="Роль" style="ellipse;whiteSpace=wrap;html=1;" parent="1" vertex="1">
          <mxGeometry x="340" y="90" width="80" height="40" as="geometry" />
        </mxCell>
        <mxCell id="BM99FK_3BUTFEGiYKY4v-53" value="" style="endArrow=none;html=1;rounded=0;exitX=0.5;exitY=1;exitDx=0;exitDy=0;entryX=0.5;entryY=0;entryDx=0;entryDy=0;" parent="1" source="BM99FK_3BUTFEGiYKY4v-52" target="BM99FK_3BUTFEGiYKY4v-1" edge="1">
          <mxGeometry relative="1" as="geometry">
            <mxPoint x="600" y="320" as="sourcePoint" />
            <mxPoint x="760" y="320" as="targetPoint" />
          </mxGeometry>
        </mxCell>
        <mxCell id="BM99FK_3BUTFEGiYKY4v-54" value="" style="endArrow=none;html=1;rounded=0;exitX=0;exitY=0.5;exitDx=0;exitDy=0;entryX=0.5;entryY=0;entryDx=0;entryDy=0;edgeStyle=orthogonalEdgeStyle;" parent="1" source="BM99FK_3BUTFEGiYKY4v-49" target="BM99FK_3BUTFEGiYKY4v-1" edge="1">
          <mxGeometry relative="1" as="geometry">
            <mxPoint x="390" y="140" as="sourcePoint" />
            <mxPoint x="390" y="260" as="targetPoint" />
          </mxGeometry>
        </mxCell>
        <mxCell id="BM99FK_3BUTFEGiYKY4v-55" value="" style="endArrow=none;html=1;rounded=0;exitX=0;exitY=0.5;exitDx=0;exitDy=0;entryX=0.5;entryY=0;entryDx=0;entryDy=0;edgeStyle=orthogonalEdgeStyle;" parent="1" source="BM99FK_3BUTFEGiYKY4v-51" target="BM99FK_3BUTFEGiYKY4v-1" edge="1">
          <mxGeometry relative="1" as="geometry">
            <mxPoint x="400" y="150" as="sourcePoint" />
            <mxPoint x="400" y="270" as="targetPoint" />
          </mxGeometry>
        </mxCell>
        <mxCell id="BM99FK_3BUTFEGiYKY4v-56" value="" style="endArrow=none;html=1;rounded=0;exitX=1;exitY=0.5;exitDx=0;exitDy=0;entryX=0.5;entryY=0;entryDx=0;entryDy=0;edgeStyle=orthogonalEdgeStyle;" parent="1" source="BM99FK_3BUTFEGiYKY4v-48" target="BM99FK_3BUTFEGiYKY4v-1" edge="1">
          <mxGeometry relative="1" as="geometry">
            <mxPoint x="410" y="160" as="sourcePoint" />
            <mxPoint x="410" y="280" as="targetPoint" />
          </mxGeometry>
        </mxCell>
        <mxCell id="BM99FK_3BUTFEGiYKY4v-57" value="" style="endArrow=none;html=1;rounded=0;exitX=1;exitY=0.5;exitDx=0;exitDy=0;entryX=0.5;entryY=0;entryDx=0;entryDy=0;edgeStyle=orthogonalEdgeStyle;" parent="1" source="BM99FK_3BUTFEGiYKY4v-47" target="BM99FK_3BUTFEGiYKY4v-1" edge="1">
          <mxGeometry relative="1" as="geometry">
            <mxPoint x="420" y="170" as="sourcePoint" />
            <mxPoint x="420" y="290" as="targetPoint" />
          </mxGeometry>
        </mxCell>
        <mxCell id="BM99FK_3BUTFEGiYKY4v-60" value="Дата загрузки" style="ellipse;whiteSpace=wrap;html=1;" parent="1" vertex="1">
          <mxGeometry x="840" y="75" width="70" height="40" as="geometry" />
        </mxCell>
        <mxCell id="BM99FK_3BUTFEGiYKY4v-61" value="" style="endArrow=none;html=1;rounded=0;entryX=0;entryY=0.5;entryDx=0;entryDy=0;exitX=1;exitY=0.5;exitDx=0;exitDy=0;" parent="1" source="BM99FK_3BUTFEGiYKY4v-12" target="BM99FK_3BUTFEGiYKY4v-60" edge="1">
          <mxGeometry relative="1" as="geometry">
            <mxPoint x="600" y="320" as="sourcePoint" />
            <mxPoint x="760" y="320" as="targetPoint" />
          </mxGeometry>
        </mxCell>
        <mxCell id="BM99FK_3BUTFEGiYKY4v-62" value="" style="edgeStyle=entityRelationEdgeStyle;fontSize=12;html=1;endArrow=ERoneToMany;rounded=0;entryX=0;entryY=0.5;entryDx=0;entryDy=0;exitX=1;exitY=0.5;exitDx=0;exitDy=0;" parent="1" source="BM99FK_3BUTFEGiYKY4v-5" target="BM99FK_3BUTFEGiYKY4v-3" edge="1">
          <mxGeometry width="100" height="100" relative="1" as="geometry">
            <mxPoint x="630" y="370" as="sourcePoint" />
            <mxPoint x="730" y="270" as="targetPoint" />
          </mxGeometry>
        </mxCell>
        <mxCell id="BM99FK_3BUTFEGiYKY4v-63" value="" style="edgeStyle=orthogonalEdgeStyle;fontSize=12;html=1;endArrow=ERoneToMany;rounded=0;entryX=0.5;entryY=0;entryDx=0;entryDy=0;exitX=0.5;exitY=1;exitDx=0;exitDy=0;" parent="1" source="BM99FK_3BUTFEGiYKY4v-17" target="BM99FK_3BUTFEGiYKY4v-16" edge="1">
          <mxGeometry width="100" height="100" relative="1" as="geometry">
            <mxPoint x="620" y="275" as="sourcePoint" />
            <mxPoint x="680" y="275" as="targetPoint" />
          </mxGeometry>
        </mxCell>
        <mxCell id="BM99FK_3BUTFEGiYKY4v-64" value="" style="edgeStyle=orthogonalEdgeStyle;fontSize=12;html=1;endArrow=ERoneToMany;rounded=0;entryX=0.5;entryY=1;entryDx=0;entryDy=0;exitX=0.5;exitY=0;exitDx=0;exitDy=0;" parent="1" source="BM99FK_3BUTFEGiYKY4v-13" target="BM99FK_3BUTFEGiYKY4v-12" edge="1">
          <mxGeometry width="100" height="100" relative="1" as="geometry">
            <mxPoint x="630" y="285" as="sourcePoint" />
            <mxPoint x="690" y="285" as="targetPoint" />
          </mxGeometry>
        </mxCell>
        <mxCell id="BM99FK_3BUTFEGiYKY4v-65" value="" style="edgeStyle=entityRelationEdgeStyle;fontSize=12;html=1;endArrow=ERoneToMany;rounded=0;entryX=0;entryY=0.5;entryDx=0;entryDy=0;exitX=1;exitY=0.5;exitDx=0;exitDy=0;" parent="1" source="BM99FK_3BUTFEGiYKY4v-21" target="BM99FK_3BUTFEGiYKY4v-20" edge="1">
          <mxGeometry width="100" height="100" relative="1" as="geometry">
            <mxPoint x="640" y="295" as="sourcePoint" />
            <mxPoint x="700" y="295" as="targetPoint" />
          </mxGeometry>
        </mxCell>
        <mxCell id="BM99FK_3BUTFEGiYKY4v-66" value="" style="edgeStyle=orthogonalEdgeStyle;fontSize=12;html=1;endArrow=ERoneToMany;rounded=0;entryX=0.5;entryY=0;entryDx=0;entryDy=0;exitX=0.5;exitY=1;exitDx=0;exitDy=0;" parent="1" source="BM99FK_3BUTFEGiYKY4v-9" target="BM99FK_3BUTFEGiYKY4v-4" edge="1">
          <mxGeometry width="100" height="100" relative="1" as="geometry">
            <mxPoint x="650" y="305" as="sourcePoint" />
            <mxPoint x="710" y="305" as="targetPoint" />
          </mxGeometry>
        </mxCell>
        <mxCell id="BM99FK_3BUTFEGiYKY4v-68" value="" style="endArrow=none;html=1;rounded=0;entryX=0.5;entryY=0;entryDx=0;entryDy=0;exitX=1;exitY=0.5;exitDx=0;exitDy=0;edgeStyle=orthogonalEdgeStyle;" parent="1" source="BM99FK_3BUTFEGiYKY4v-3" target="BM99FK_3BUTFEGiYKY4v-26" edge="1">
          <mxGeometry relative="1" as="geometry">
            <mxPoint x="600" y="320" as="sourcePoint" />
            <mxPoint x="760" y="320" as="targetPoint" />
          </mxGeometry>
        </mxCell>
        <mxCell id="BM99FK_3BUTFEGiYKY4v-69" value="Время" style="ellipse;whiteSpace=wrap;html=1;" parent="1" vertex="1">
          <mxGeometry x="510" y="590" width="70" height="30" as="geometry" />
        </mxCell>
        <mxCell id="BM99FK_3BUTFEGiYKY4v-70" value="" style="endArrow=none;html=1;rounded=0;entryX=0.5;entryY=0;entryDx=0;entryDy=0;exitX=0.5;exitY=1;exitDx=0;exitDy=0;" parent="1" source="BM99FK_3BUTFEGiYKY4v-20" target="BM99FK_3BUTFEGiYKY4v-69" edge="1">
          <mxGeometry relative="1" as="geometry">
            <mxPoint x="600" y="450" as="sourcePoint" />
            <mxPoint x="760" y="450" as="targetPoint" />
          </mxGeometry>
        </mxCell>
        <mxCell id="n3rjIxv_U7lDMXaY99Mu-1" value="Дата" style="ellipse;whiteSpace=wrap;html=1;" vertex="1" parent="1">
          <mxGeometry x="980" y="250" width="70" height="30" as="geometry" />
        </mxCell>
        <mxCell id="n3rjIxv_U7lDMXaY99Mu-2" value="" style="endArrow=none;html=1;rounded=0;entryX=0;entryY=0.5;entryDx=0;entryDy=0;exitX=1;exitY=0.5;exitDx=0;exitDy=0;" edge="1" parent="1" source="BM99FK_3BUTFEGiYKY4v-3" target="n3rjIxv_U7lDMXaY99Mu-1">
          <mxGeometry width="50" height="50" relative="1" as="geometry">
            <mxPoint x="510" y="290" as="sourcePoint" />
            <mxPoint x="560" y="240" as="targetPoint" />
          </mxGeometry>
        </mxCell>
      </root>
    </mxGraphModel>
  </diagram>
</mxfile>
